<svg width="56" height="56" viewBox="0 0 56 56" fill="none" xmlns="http://www.w3.org/2000/svg">
<path d="M23.6563 42.2292C18.8376 37.7332 16.9299 32.1901 17.9333 25.5998C17.9597 25.3524 18.0362 25.1133 18.1578 24.8975C18.2794 24.6818 18.4435 24.494 18.6398 24.3462C20.0693 23.2354 21.6623 22.3623 23.3595 21.7595C23.8753 21.5722 24.3982 21.3993 24.37 20.7004C24.3417 20.0015 23.7553 19.915 23.2536 19.7637C22.3199 19.5444 21.3465 19.5742 20.4274 19.8502C18.1639 20.3405 16.0308 21.3236 14.1743 22.7322C12.9254 23.6534 11.8242 24.7666 10.9101 26.0322L10.6557 26.3996L10.5992 26.4429C10.5992 26.4429 10.5992 26.4428 10.5992 26.4861C10.4791 26.659 10.366 26.8319 10.2459 27.0192L10.0693 27.3003L10.0198 27.4083C9.55384 28.1889 9.15893 29.0113 8.8399 29.8653C8.8399 29.8653 8.8399 29.9229 8.8399 29.9445C8.44204 31.0426 8.16938 32.1837 8.02734 33.3453C8.08387 33.7488 8.36652 33.756 8.6774 33.7488C8.98422 33.7381 9.29134 33.7525 9.59587 33.7921C10.1117 33.9578 13.3619 35.1106 14.4288 37.7765C14.4318 37.7907 14.4318 37.8055 14.4288 37.8197C14.4924 37.9782 14.5418 38.1511 14.5913 38.3169C14.9354 39.6472 14.7791 41.0608 14.1532 42.2797C14.0472 42.6975 14.358 42.8561 14.6195 43.0434C15.9468 43.9507 17.5051 44.4428 19.103 44.4595C20.7008 44.4761 22.2687 44.0165 23.614 43.1371C24.2287 42.8344 24.1156 42.6543 23.6563 42.2292Z" fill="#E4009D"/>
<path d="M10.1118 27.3651L10.0835 27.3219L10.1118 27.3651Z" fill="#E4009D"/>
<path d="M40.5501 37.9494C41.4403 35.37 43.3763 34.1235 45.934 33.8209C46.2944 30.1102 44.9589 27.2498 41.8148 25.3189C40.9104 24.7713 40.8892 24.8145 40.6561 25.8448C39.243 32.2502 35.4841 36.6164 29.4925 39.0085C29.2522 39.1114 28.9933 39.1614 28.7327 39.1552C28.4722 39.149 28.2158 39.0867 27.9805 38.9725C26.2387 38.2258 24.6297 37.1912 23.2183 35.9104C23.0803 35.7508 22.8932 35.6439 22.6878 35.6073C22.4823 35.5706 22.2707 35.6063 22.0878 35.7086C21.9075 35.8172 21.7712 35.9881 21.7038 36.1904C21.6364 36.3926 21.6423 36.6128 21.7204 36.811C21.8718 37.5158 22.1654 38.1807 22.5824 38.7636C24.6697 41.4771 27.5487 43.444 30.8037 44.3803C34.0586 45.3166 37.5211 45.1739 40.6914 43.9728C41.3979 43.699 41.3556 43.4757 41.0164 42.8993C40.573 42.1654 40.3004 41.3376 40.2196 40.4795C40.1387 39.6215 40.2518 38.756 40.5501 37.9494Z" fill="#E4009D"/>
<path d="M46.0966 34.9232C45.4552 34.9298 44.8214 35.0657 44.2318 35.3232C43.6422 35.5807 43.1083 35.9546 42.661 36.4234C42.2138 36.8923 41.8619 37.4467 41.6257 38.0549C41.3895 38.663 41.2737 39.3128 41.2849 39.9668C41.2924 41.2701 41.8059 42.5173 42.713 43.4355C43.62 44.3537 44.8468 44.8682 46.1249 44.8663C47.4174 44.8625 48.656 44.3377 49.5706 43.4064C50.4852 42.4751 51.0015 41.2128 51.0071 39.8948C50.9887 38.5759 50.4643 37.3168 49.5464 36.3875C48.6285 35.4582 47.3901 34.9325 46.0966 34.9232Z" fill="#E4009D"/>
<path d="M8.7833 34.9232C7.50566 34.9496 6.28915 35.4858 5.39482 36.4167C4.5005 37.3475 3.99974 38.5988 4 39.9019C3.99998 40.555 4.12663 41.2016 4.37277 41.8046C4.61891 42.4075 4.97967 42.9547 5.43415 43.4148C5.88864 43.875 6.42788 44.2388 7.02088 44.4854C7.61388 44.7321 8.24889 44.8566 8.8893 44.8518C9.53199 44.8453 10.1671 44.7095 10.7583 44.4524C11.3495 44.1953 11.8852 43.8218 12.3347 43.3534C12.7842 42.8849 13.1388 42.3307 13.3781 41.7224C13.6173 41.1141 13.7366 40.4636 13.7292 39.8083C13.6888 38.4983 13.15 37.2558 12.2268 36.344C11.3036 35.4321 10.0685 34.9226 8.7833 34.9232Z" fill="#E4009D"/>
<path d="M18.3429 18.7766C21.1772 17.8153 24.207 17.6173 27.1385 18.2018C30.0699 18.7863 32.8036 20.1334 35.0741 22.1126C35.2739 22.265 35.4401 22.4586 35.5618 22.6808C35.6836 22.903 35.7581 23.1488 35.7807 23.4023C36.0198 25.2485 35.9649 27.1219 35.6182 28.9502C35.5084 29.3548 35.5512 29.7867 35.7382 30.1607C35.848 30.2498 35.9747 30.3148 36.1102 30.3516C36.2458 30.3884 36.3874 30.3963 36.526 30.3746C36.6647 30.353 36.7975 30.3023 36.9161 30.2258C37.0346 30.1493 37.1364 30.0486 37.215 29.9301C37.6847 29.4436 38.0609 28.8718 38.3242 28.2441C39.5706 25.0476 39.7871 21.5296 38.9424 18.1993C38.0977 14.869 36.2355 11.8992 33.6256 9.71982C33.4066 9.53969 33.23 9.25149 32.8767 9.33795C32.5084 10.3402 31.8647 11.213 31.0226 11.8519C30.1806 12.4908 29.1758 12.8687 28.1286 12.9405C27.047 13.1015 25.9428 12.933 24.9547 12.4562C23.9667 11.9793 23.1388 11.2153 22.5751 10.2602C22.2224 10.2447 21.8761 10.3599 21.6001 10.5844C18.4064 12.4721 17.0145 15.3038 17.3607 19.036C17.6999 19.1081 18.0108 18.8775 18.3429 18.7766Z" fill="#E4009D"/>
<path d="M24.0592 10.5269C24.2924 10.707 24.5255 10.8871 24.7657 11.06C25.7606 11.7488 26.9711 12.0359 28.1619 11.8655C29.3528 11.695 30.439 11.0792 31.2095 10.1378C31.9964 9.18837 32.4034 7.97148 32.3497 6.72963C32.2961 5.48778 31.7855 4.31216 30.9198 3.43705C30.0553 2.56192 28.8998 2.05022 27.6825 2.0035C26.4653 1.95679 25.2753 2.37847 24.3488 3.18486C22.2292 5.01496 22.0738 7.68805 23.8826 10.3467L24.0592 10.5269Z" fill="#E4009D"/>
</svg>
