<svg width="56" height="56" viewBox="0 0 56 56" fill="none" xmlns="http://www.w3.org/2000/svg">
<g clip-path="url(#clip0_262_1331)">
<path fill-rule="evenodd" clip-rule="evenodd" d="M33.3242 34.4455C32.5428 34.4455 31.7935 34.1412 31.241 33.5994C30.6886 33.0577 30.3782 32.323 30.3782 31.5569V28.6682C30.3782 27.9021 30.6886 27.1674 31.241 26.6257C31.7935 26.0839 32.5428 25.7796 33.3242 25.7796H50.9857V34.4455H33.3242ZM35.5354 28.0667C35.0981 28.0667 34.6706 28.1939 34.3069 28.4321C33.9433 28.6704 33.6598 29.009 33.4925 29.4052C33.3251 29.8014 33.2813 30.2374 33.3667 30.6579C33.452 31.0785 33.6626 31.4649 33.9718 31.7681C34.2811 32.0713 34.6751 32.2778 35.104 32.3615C35.533 32.4452 35.9776 32.4022 36.3816 32.2381C36.7857 32.074 37.131 31.7961 37.374 31.4395C37.617 31.083 37.7467 30.6638 37.7467 30.2349C37.7467 29.6599 37.5137 29.1084 37.099 28.7018C36.6843 28.2952 36.1219 28.0667 35.5354 28.0667ZM28.9088 28.6682V31.5569C28.9088 32.7051 29.374 33.8063 30.202 34.6182C31.0301 35.4302 32.1531 35.8863 33.3242 35.8863H48.054V41.6706C48.054 42.8188 47.5888 43.92 46.7608 44.7319C45.9327 45.5439 44.8097 46 43.6386 46H8.42253C7.25084 46 6.12702 45.5441 5.29784 44.7324C4.46866 43.9206 4.00189 42.8194 4 41.6706V14.2181C4.00189 13.0692 4.46866 11.968 5.29784 11.1563C6.12702 10.3446 7.25084 9.88863 8.42253 9.88863H22.6102L19.1507 11.2875H7.6878C7.10134 11.2875 6.5389 11.5159 6.12421 11.9225C5.70952 12.3292 5.47656 12.8807 5.47656 13.4557C5.47656 14.0308 5.70952 14.5822 6.12421 14.9889C6.5389 15.3955 7.10134 15.6239 7.6878 15.6239H48.054V24.3178H33.3242C32.7428 24.3187 32.1673 24.432 31.6306 24.6512C31.0939 24.8704 30.6067 25.1913 30.1966 25.5953C29.7865 25.9994 29.4616 26.4788 29.2407 27.0061C29.0197 27.5333 28.9069 28.0982 28.9088 28.6682ZM15.791 14.1342L37.3758 7L40.6927 14.1342H15.791ZM40.172 9.88863H43.6386C44.249 9.88797 44.8529 10.012 45.4117 10.2529C45.9705 10.4937 46.472 10.8461 46.8842 11.2875H40.871L40.172 9.88863Z" fill="#D0008F"/>
</g>
<defs>
<clipPath id="clip0_262_1331">
<rect width="47" height="39" fill="white" transform="translate(4 7)"/>
</clipPath>
</defs>
</svg>
