<svg width="56" height="56" viewBox="0 0 56 56" fill="none" xmlns="http://www.w3.org/2000/svg">
<path d="M28.1134 2C24.911 3.06651 22.1269 5.11354 20.1568 7.85008C18.1867 10.5866 17.1308 13.8734 17.1392 17.2434V45.8632H39.0875V17.2434C39.096 13.8734 38.0401 10.5866 36.07 7.85008C34.0999 5.11354 31.3157 3.06651 28.1134 2ZM28.1134 27.5377C26.6588 27.5354 25.2645 26.9575 24.236 25.9308C23.2075 24.9041 22.6287 23.5123 22.6263 22.0603C22.6263 20.6076 23.2044 19.2144 24.2334 18.1872C25.2625 17.16 26.6581 16.5829 28.1134 16.5829C28.8343 16.5817 29.5484 16.7226 30.2146 16.9975C30.8809 17.2723 31.4862 17.6757 31.996 18.1846C32.5057 18.6934 32.9099 19.2977 33.1852 19.9628C33.4605 20.6279 33.6016 21.3407 33.6005 22.0603C33.604 22.7818 33.4646 23.4969 33.1904 24.1645C32.9162 24.8321 32.5126 25.439 32.0027 25.9505C31.4929 26.4619 30.8868 26.8677 30.2193 27.1446C29.5519 27.4216 28.8362 27.5641 28.1134 27.5641V27.5377Z" fill="#E4009D"/>
<path d="M17.1392 45.8191H8C7.99843 42.3471 8.68245 38.9089 10.013 35.701C11.3435 32.4931 13.2945 29.5785 15.7543 27.1238L17.1392 25.7412" stroke="#E4009D" stroke-width="2" stroke-linecap="round" stroke-linejoin="round"/>
<path d="M39.0874 45.8191H48.2267C48.2283 42.3471 47.5442 38.9089 46.2137 35.701C44.8831 32.4931 42.9322 29.5785 40.4724 27.1238L39.0874 25.7412" stroke="#E4009D" stroke-width="2" stroke-linecap="round" stroke-linejoin="round"/>
<path d="M33.6006 51.2965V53.1194H22.6265V51.2965" stroke="#E4009D" stroke-width="2" stroke-linecap="round" stroke-linejoin="round"/>
</svg>
