<svg width="56" height="56" viewBox="0 0 56 56" fill="none" xmlns="http://www.w3.org/2000/svg">
<path d="M40.6501 16.5189H29.1617C29.5127 14.3455 30.7817 13.468 32.3477 12.469C34.3322 11.119 36.7892 9.51253 36.7892 4.94958C36.7037 4.67445 36.5325 4.43386 36.3005 4.26301C36.0686 4.09216 35.788 4 35.4999 4C35.2118 4 34.9313 4.09216 34.6993 4.26301C34.4674 4.43386 34.2962 4.67445 34.2107 4.94958C34.2107 8.13555 32.7527 9.09404 30.9167 10.3495C29.0808 11.605 26.9883 13.0495 26.5698 16.5865H14.8789C11.4643 16.59 8.19056 17.948 5.77607 20.3625C3.36159 22.777 2.00357 26.0507 2 29.4653V43.6402C2.00357 45.3469 2.68316 46.9827 3.89001 48.1896C5.09687 49.3965 6.73271 50.0761 8.43946 50.0796C17.4574 50.0796 17.4573 37.2007 27.7712 37.2007C38.0851 37.2007 38.0716 50.0796 47.0895 50.0796C48.7986 50.0796 50.438 49.4016 51.6477 48.1944C52.8575 46.9871 53.5389 45.3493 53.5425 43.6402V29.3978C53.5389 25.9809 52.179 22.7051 49.7616 20.2903C47.3442 17.8754 44.0671 16.5189 40.6501 16.5189ZM17.4574 30.6803H14.8789V33.2588C14.9416 33.4608 14.956 33.6748 14.9209 33.8834C14.8857 34.092 14.8021 34.2895 14.6766 34.4598C14.5511 34.6302 14.3874 34.7686 14.1986 34.8641C14.0098 34.9595 13.8012 35.0092 13.5897 35.0092C13.3781 35.0092 13.1695 34.9595 12.9807 34.8641C12.7919 34.7686 12.6281 34.6302 12.5027 34.4598C12.3772 34.2895 12.2936 34.092 12.2584 33.8834C12.2233 33.6748 12.2377 33.4608 12.3004 33.2588V30.6803H9.72193C9.38179 30.6803 9.05558 30.5452 8.81507 30.3047C8.57455 30.0642 8.43946 29.738 8.43946 29.3978C8.43946 29.0577 8.57455 28.7315 8.81507 28.491C9.05558 28.2504 9.38179 28.1154 9.72193 28.1154H12.3004V25.4829C12.2377 25.2808 12.2233 25.0669 12.2584 24.8583C12.2936 24.6496 12.3772 24.4522 12.5027 24.2819C12.6281 24.1115 12.7919 23.973 12.9807 23.8776C13.1695 23.7822 13.3781 23.7325 13.5897 23.7325C13.8012 23.7325 14.0098 23.7822 14.1986 23.8776C14.3874 23.973 14.5511 24.1115 14.6766 24.2819C14.8021 24.4522 14.8857 24.6496 14.9209 24.8583C14.956 25.0669 14.9416 25.2808 14.8789 25.4829V28.1828H17.4574C17.6601 28.1162 17.8758 28.0986 18.0867 28.1314C18.2976 28.1643 18.4977 28.2467 18.6705 28.3718C18.8434 28.497 18.9841 28.6613 19.0812 28.8514C19.1783 29.0415 19.2289 29.2519 19.2289 29.4653C19.2289 29.6788 19.1783 29.8892 19.0812 30.0792C18.9841 30.2693 18.8434 30.4337 18.6705 30.5588C18.4977 30.684 18.2976 30.7664 18.0867 30.7992C17.8758 30.8321 17.6601 30.8144 17.4574 30.7478V30.6803ZM38.0716 30.6803H36.7892C36.5864 30.747 36.3707 30.7646 36.1598 30.7317C35.949 30.6989 35.7489 30.6165 35.576 30.4913C35.4031 30.3662 35.2624 30.2018 35.1653 30.0117C35.0683 29.8216 35.0177 29.6112 35.0177 29.3978C35.0177 29.1844 35.0683 28.974 35.1653 28.7839C35.2624 28.5938 35.4031 28.4295 35.576 28.3043C35.7489 28.1792 35.949 28.0968 36.1598 28.0639C36.3707 28.0311 36.5864 28.0487 36.7892 28.1154H38.0716C38.2744 28.0487 38.4901 28.0311 38.701 28.0639C38.9118 28.0968 39.1119 28.1792 39.2848 28.3043C39.4577 28.4295 39.5985 28.5938 39.6955 28.7839C39.7926 28.974 39.8432 29.1844 39.8432 29.3978C39.8432 29.6112 39.7926 29.8216 39.6955 30.0117C39.5985 30.2018 39.4577 30.3662 39.2848 30.4913C39.1119 30.6165 38.9118 30.6989 38.701 30.7317C38.4901 30.7646 38.2744 30.747 38.0716 30.6803ZM42.5806 33.9068C42.6433 34.1088 42.6578 34.3228 42.6226 34.5314C42.5875 34.74 42.5038 34.9374 42.3784 35.1078C42.2529 35.2781 42.0891 35.4166 41.9003 35.512C41.7115 35.6074 41.5029 35.6572 41.2914 35.6572C41.0798 35.6572 40.8712 35.6074 40.6824 35.512C40.4936 35.4166 40.3299 35.2781 40.2044 35.1078C40.0789 34.9374 39.9953 34.74 39.9601 34.5314C39.925 34.3228 39.9394 34.1088 40.0021 33.9068V32.6243C39.9394 32.4223 39.925 32.2083 39.9601 31.9997C39.9953 31.7911 40.0789 31.5936 40.2044 31.4233C40.3299 31.253 40.4936 31.1145 40.6824 31.0191C40.8712 30.9236 41.0798 30.8739 41.2914 30.8739C41.5029 30.8739 41.7115 30.9236 41.9003 31.0191C42.0891 31.1145 42.2529 31.253 42.3784 31.4233C42.5038 31.5936 42.5875 31.7911 42.6226 31.9997C42.6578 32.2083 42.6433 32.4223 42.5806 32.6243V33.9068ZM42.5806 26.1714C42.6433 26.3734 42.6578 26.5874 42.6226 26.796C42.5875 27.0046 42.5038 27.202 42.3784 27.3724C42.2529 27.5427 42.0891 27.6812 41.9003 27.7766C41.7115 27.8721 41.5029 27.9218 41.2914 27.9218C41.0798 27.9218 40.8712 27.8721 40.6824 27.7766C40.4936 27.6812 40.3299 27.5427 40.2044 27.3724C40.0789 27.202 39.9953 27.0046 39.9601 26.796C39.925 26.5874 39.9394 26.3734 40.0021 26.1714V24.8889C40.0876 24.6137 40.2588 24.3731 40.4908 24.2023C40.7227 24.0314 41.0033 23.9393 41.2914 23.9393C41.5795 23.9393 41.86 24.0314 42.092 24.2023C42.3239 24.3731 42.4951 24.6137 42.5806 24.8889V26.1714ZM45.8071 30.6803H44.5246C44.3218 30.747 44.1062 30.7646 43.8953 30.7317C43.6844 30.6989 43.4843 30.6165 43.3114 30.4913C43.1385 30.3662 42.9978 30.2018 42.9007 30.0117C42.8037 29.8216 42.7531 29.6112 42.7531 29.3978C42.7531 29.1844 42.8037 28.974 42.9007 28.7839C42.9978 28.5938 43.1385 28.4295 43.3114 28.3043C43.4843 28.1792 43.6844 28.0968 43.8953 28.0639C44.1062 28.0311 44.3218 28.0487 44.5246 28.1154H45.8071C46.0772 28.2041 46.3124 28.3759 46.4791 28.6062C46.6458 28.8365 46.7355 29.1135 46.7355 29.3978C46.7355 29.6821 46.6458 29.9592 46.4791 30.1895C46.3124 30.4198 46.0772 30.5915 45.8071 30.6803Z" fill="#E4009D"/>
</svg>
