<svg width="56" height="56" viewBox="0 0 56 56" fill="none" xmlns="http://www.w3.org/2000/svg">
<g clip-path="url(#clip0_262_1338)">
<path d="M48.2746 13.2322L29.723 2.48366C29.1995 2.17868 28.6051 2.01807 28 2.01807C27.3949 2.01807 26.8005 2.17868 26.277 2.48366L7.72055 13.2322C7.1975 13.5369 6.76324 13.9743 6.46129 14.5008C6.15933 15.0273 6.00026 15.6243 6 16.232V37.768C6.00026 38.3757 6.15933 38.9727 6.46129 39.4991C6.76324 40.0256 7.1975 40.4631 7.72055 40.7678L26.277 51.5163C26.8005 51.8213 27.3949 51.9819 28 51.9819C28.6051 51.9819 29.1995 51.8213 29.723 51.5163L48.2746 40.7678C48.7989 40.4641 49.2344 40.027 49.5372 39.5004C49.8401 38.9738 49.9998 38.3763 50 37.768V16.232C49.9998 15.6237 49.8401 15.0262 49.5372 14.4996C49.2344 13.973 48.7989 13.5359 48.2746 13.2322ZM23.3415 32.7358H21.6306L17.4702 26.0522C16.5731 24.6368 15.7616 23.1685 15.0401 21.6551H14.9818C15.079 23.3162 15.1179 24.8991 15.1179 27.0879V32.7162H13.5237V19.5249H15.3706L19.5699 26.189C20.4463 27.5623 21.2321 28.992 21.9222 30.4688H21.9611C21.8056 28.71 21.7667 27.1075 21.7667 25.0555V19.564H23.3609L23.3415 32.7358ZM33.3536 21.0101H28.0073V25.4073H32.9648V26.785H28.0073V32.7455H26.2916V19.5542H33.3487L33.3536 21.0101ZM43.9684 21.0101H39.9636V32.7358H38.2527V21.0101H34.2673V19.5444H43.9879L43.9684 21.0101Z" fill="#E4009D"/>
</g>
<defs>
<clipPath id="clip0_262_1338">
<rect width="44" height="50" fill="white" transform="translate(6 2)"/>
</clipPath>
</defs>
</svg>
